<?xml version="1.0" encoding="UTF-8"?>
<svg id="a" data-name="Layer 2" xmlns="http://www.w3.org/2000/svg" xmlns:xlink="http://www.w3.org/1999/xlink" viewBox="0 0 194.16 215.52">
  <defs>
    <style>
      .d {
        fill: #333;
      }

      .e {
        filter: url(#b);
      }

      .f {
        fill: #fbc825;
      }
    </style>
    <filter id="b" data-name="drop-shadow-1" x="0" y="0" width="194.16" height="215.52" filterUnits="userSpaceOnUse">
      <feOffset dx="0" dy="0"/>
      <feGaussianBlur result="c" stdDeviation="5.6693"/>
      <feFlood flood-color="#231916" flood-opacity="0"/>
      <feComposite in2="c" operator="in"/>
      <feComposite in="SourceGraphic"/>
    </filter>
  </defs>
  <g class="e">
    <path class="d" d="M51.9627,134.7267c1.8721-2.3042,2.3047-6.6245,2.3047-9.5049v-31.1787c0-2.8804-.4326-7.2007-2.3047-9.5049h13.1768c-1.8721,2.3042-2.3037,6.6245-2.3037,9.5049v31.1787c0,2.8615.4293,7.1399,2.2704,9.455l.7894-117.551H17.1352v3.1157s12.9819,10.2664,13.5015,30.5178v97.623c-.5195,20.2515-13.5015,46.7344-13.5015,46.7344v3.1157h47.5442l.4265-63.5059h-13.1431ZM51.3162,134.7267h-13.1768c1.8721-2.3042,2.3047-6.6245,2.3047-9.5049v-31.1787c0-2.8804-.4326-7.2007-2.3047-9.5049h13.1768c-1.8721,2.3042-2.3037,6.6245-2.3037,9.5049v31.1787c0,2.8804.4316,7.2007,2.3037,9.5049Z"/>
    <path class="f" d="M68.2003,125.2218v-31.1787c0-2.8804-.4326-7.2007-2.3047-9.5049h13.1768c-1.8721,2.3042-2.3037,6.6245-2.3037,9.5049v31.1787c0,2.8804.4316,7.2007,2.3037,9.5049h-13.1768c1.8721-2.3042,2.3047-6.6245,2.3047-9.5049Z"/>
    <path class="f" d="M82.0235,125.2218v-31.1787c0-2.8804-.4326-7.2007-2.3047-9.5049h13.1768c-1.8721,2.3042-2.3037,6.6245-2.3037,9.5049v31.1787c0,2.8804.4316,7.2007,2.3037,9.5049h-13.1768c1.8721-2.3042,2.3047-6.6245,2.3047-9.5049Z"/>
    <path class="f" d="M95.8477,125.2218v-31.1787c0-2.8804-.4326-7.2007-2.3047-9.5049h13.1768c-1.8721,2.3042-2.3037,6.6245-2.3037,9.5049v31.1787c0,2.8804.4316,7.2007,2.3037,9.5049h-13.1768c1.8721-2.3042,2.3047-6.6245,2.3047-9.5049Z"/>
    <path class="f" d="M109.671,125.2218v-31.1787c0-2.8804-.4326-7.2007-2.3047-9.5049h13.1768c-1.8721,2.3042-2.3037,6.6245-2.3037,9.5049v31.1787c0,2.8804.4316,7.2007,2.3037,9.5049h-13.1768c1.8721-2.3042,2.3047-6.6245,2.3047-9.5049Z"/>
    <path class="d" d="M165.0409,198.2325h-47.2534c27.3453-3.166,48.6133-33.7097,55.9967-45.6187h3.1152l-11.8585,45.6187Z"/>
    <path class="d" d="M117.7874,17.1259h47.2534v2.9963l9.9225,39.2178h-3.1152c-3.742-13.4843-21.8209-36.915-54.0607-42.2141Z"/>
  </g>
</svg>